<svg width="1185" height="840" viewBox="0 0 1185 840" fill="none" xmlns="http://www.w3.org/2000/svg">
<path d="M1.8 -3.71933e-05H109.2V196.8H184.2V-3.71933e-05H292.2V486H184.2V273.6H109.2V486H1.8V-3.71933e-05ZM474.211 492C436.211 492 406.611 482 385.411 462C364.211 441.6 353.611 413 353.611 376.2V249C353.611 212.2 364.211 183.8 385.411 163.8C406.611 143.4 436.211 133.2 474.211 133.2C512.611 133.2 541.411 143 560.611 162.6C579.811 182.2 589.411 211 589.411 249V318.6H450.211V385.2C450.211 410 458.211 422.4 474.211 422.4C491.011 422.4 499.411 411.2 499.411 388.8V352.2H589.411V385.8C589.411 420.6 579.211 447 558.811 465C538.811 483 510.611 492 474.211 492ZM499.411 273V238.2C499.411 225.4 497.011 216.4 492.211 211.2C487.811 205.6 481.611 202.8 473.611 202.8C466.011 202.8 460.211 205.8 456.211 211.8C452.211 217.8 450.211 228.4 450.211 243.6V273H499.411ZM646.847 -3.71933e-05H744.047V486H646.847V-3.71933e-05ZM811.495 -3.71933e-05H908.695V486H811.495V-3.71933e-05ZM1078.74 492C1047.94 492 1022.34 485.2 1001.94 471.6C981.944 457.6 965.744 435.4 953.344 405L1019.94 375.6C1026.34 391.6 1033.74 404 1042.14 412.8C1050.94 421.6 1060.54 426 1070.94 426C1086.14 426 1093.74 420 1093.74 408C1093.74 399.2 1090.74 391.4 1084.74 384.6C1078.74 377.4 1065.74 365.6 1045.74 349.2L1020.54 328.2C999.744 310.6 984.544 294.6 974.944 280.2C965.744 265.8 961.144 248.6 961.144 228.6C961.144 210.2 965.944 193.8 975.544 179.4C985.544 165 998.744 153.8 1015.14 145.8C1031.54 137.4 1049.14 133.2 1067.94 133.2C1096.34 133.2 1119.94 141 1138.74 156.6C1157.94 171.8 1171.54 193.8 1179.54 222.6L1116.54 251.4C1112.54 238.6 1106.34 227.2 1097.94 217.2C1089.54 206.8 1080.34 201.6 1070.34 201.6C1063.94 201.6 1058.74 203.4 1054.74 207C1051.14 210.6 1049.34 215.4 1049.34 221.4C1049.34 228.6 1053.14 236.4 1060.74 244.8C1068.74 253.2 1081.14 264.2 1097.94 277.8L1122.54 299.4C1142.54 316.2 1157.94 332 1168.74 346.8C1179.54 361.2 1184.94 378.2 1184.94 397.8C1184.94 417.4 1179.94 434.4 1169.94 448.8C1160.34 462.8 1147.34 473.6 1130.94 481.2C1114.94 488.4 1097.54 492 1078.74 492ZM1.43051e-06 600H126.6C158.2 600 185 603.4 207 610.2C229.4 616.6 247.4 629.2 261 648C274.6 666.8 281.4 693.2 281.4 727.2C281.4 756 275.2 778.4 262.8 794.4C250.4 810.4 232.8 820.6 210 825C238 828.6 259.4 840.4 274.2 860.4C289 880.4 296.4 907.6 296.4 942C296.4 1038 247.4 1086 149.4 1086H1.43051e-06V600ZM128.4 794.4C151.2 794.4 166.6 789.2 174.6 778.8C183 768.4 187.2 752.2 187.2 730.2C187.2 711 182 696.6 171.6 687C161.2 677 146 672 126 672H107.4V794.4H128.4ZM130.2 1011C153 1011 169 1005.4 178.2 994.2C187.8 982.6 192.6 964.6 192.6 940.2C192.6 912.6 187.8 893.2 178.2 882C169 870.8 152.8 865.2 129.6 865.2H107.4V1011H130.2ZM460.734 1092C422.734 1092 393.134 1082 371.934 1062C350.734 1041.6 340.134 1013 340.134 976.2V849C340.134 812.2 350.734 783.8 371.934 763.8C393.134 743.4 422.734 733.2 460.734 733.2C499.134 733.2 527.934 743 547.134 762.6C566.334 782.2 575.934 811 575.934 849V918.6H436.734V985.2C436.734 1010 444.734 1022.4 460.734 1022.4C477.534 1022.4 485.934 1011.2 485.934 988.8V952.2H575.934V985.8C575.934 1020.6 565.734 1047 545.334 1065C525.334 1083 497.134 1092 460.734 1092ZM485.934 873V838.2C485.934 825.4 483.534 816.4 478.734 811.2C474.334 805.6 468.134 802.8 460.134 802.8C452.534 802.8 446.734 805.8 442.734 811.8C438.734 817.8 436.734 828.4 436.734 843.6V873H485.934ZM633.37 600H730.57V1086H633.37V600ZM798.019 600H895.219V1086H798.019V600ZM1065.27 1092C1034.47 1092 1008.87 1085.2 988.467 1071.6C968.467 1057.6 952.267 1035.4 939.867 1005L1006.47 975.6C1012.87 991.6 1020.27 1004 1028.67 1012.8C1037.47 1021.6 1047.07 1026 1057.47 1026C1072.67 1026 1080.27 1020 1080.27 1008C1080.27 999.2 1077.27 991.4 1071.27 984.6C1065.27 977.4 1052.27 965.6 1032.27 949.2L1007.07 928.2C986.267 910.6 971.067 894.6 961.467 880.2C952.267 865.8 947.667 848.6 947.667 828.6C947.667 810.2 952.467 793.8 962.067 779.4C972.067 765 985.267 753.8 1001.67 745.8C1018.07 737.4 1035.67 733.2 1054.47 733.2C1082.87 733.2 1106.47 741 1125.27 756.6C1144.47 771.8 1158.07 793.8 1166.07 822.6L1103.07 851.4C1099.07 838.6 1092.87 827.2 1084.47 817.2C1076.07 806.8 1066.87 801.6 1056.87 801.6C1050.47 801.6 1045.27 803.4 1041.27 807C1037.67 810.6 1035.87 815.4 1035.87 821.4C1035.87 828.6 1039.67 836.4 1047.27 844.8C1055.27 853.2 1067.67 864.2 1084.47 877.8L1109.07 899.4C1129.07 916.2 1144.47 932 1155.27 946.8C1166.07 961.2 1171.47 978.2 1171.47 997.8C1171.47 1017.4 1166.47 1034.4 1156.47 1048.8C1146.87 1062.8 1133.87 1073.6 1117.47 1081.2C1101.47 1088.4 1084.07 1092 1065.27 1092Z" fill="url(#paint0_linear)"/>
<defs>
<linearGradient id="paint0_linear" x1="17.0626" y1="515" x2="1222" y2="515" gradientUnits="userSpaceOnUse">
<stop stop-color="#ECECEC"/>
<stop offset="1" stop-color="#FCFCFC"/>
</linearGradient>
</defs>
</svg>
