<svg width="30" height="30" viewBox="0 0 30 30" fill="none" xmlns="http://www.w3.org/2000/svg">
<path d="M27.2727 0H2.72727C1.22045 0 0 1.22045 0 2.72727V27.2727C0 28.7795 1.22045 30 2.72727 30H16.3636V17.7273H12.2727V13.6364H16.3636V11.4395C16.3636 7.28045 18.39 5.45455 21.8468 5.45455C23.5023 5.45455 24.3777 5.57727 24.7923 5.63318V9.54545H22.4345C20.9673 9.54545 20.4545 10.32 20.4545 11.8882V13.6364H24.7555L24.1718 17.7273H20.4545V30H27.2727C28.7795 30 30 28.7795 30 27.2727V2.72727C30 1.22045 28.7782 0 27.2727 0Z" fill="black"/>
</svg>
