<svg width="30" height="30" viewBox="0 0 30 30" fill="none" xmlns="http://www.w3.org/2000/svg">
<path d="M27.2727 0H2.72727C1.22045 0 0 1.22045 0 2.72727V27.2727C0 28.7795 1.22045 30 2.72727 30H27.2727C28.7795 30 30 28.7795 30 27.2727V2.72727C30 1.22045 28.7795 0 27.2727 0ZM23.6741 20.4095L21.1268 20.445C21.1268 20.445 20.5773 20.5527 19.8586 20.0564C18.9055 19.4018 18.0068 17.6986 17.3059 17.9195C16.5955 18.1459 16.6173 19.6786 16.6173 19.6786C16.6173 19.6786 16.6227 19.9486 16.4605 20.1245C16.2845 20.3141 15.9395 20.295 15.9395 20.295H14.7982C14.7982 20.295 12.2809 20.5036 10.0623 18.1909C7.64591 15.6695 5.51046 10.6936 5.51046 10.6936C5.51046 10.6936 5.385 10.38 5.51864 10.2191C5.67 10.0418 6.07773 10.0364 6.07773 10.0364L8.805 10.0227C8.805 10.0227 9.06136 10.0677 9.24682 10.2041C9.39818 10.3159 9.48409 10.5259 9.48409 10.5259C9.48409 10.5259 9.92455 11.6427 10.5095 12.6545C11.6495 14.6264 12.1786 15.0586 12.5659 14.8473C13.1305 14.5391 12.9614 12.06 12.9614 12.06C12.9614 12.06 12.9723 11.16 12.6777 10.7591C12.4486 10.4468 12.0177 10.3541 11.8295 10.3309C11.6755 10.3105 11.9264 9.95318 12.2536 9.79227C12.7445 9.55227 13.6118 9.53864 14.6359 9.54818C15.4336 9.55636 15.6641 9.60546 15.975 9.68182C16.9159 9.90955 16.5968 10.7877 16.5968 12.8945C16.5968 13.5695 16.4755 14.5186 16.9609 14.8309C17.1709 14.9659 17.6823 14.8514 18.9573 12.6777C19.5641 11.6468 20.0182 10.4359 20.0182 10.4359C20.0182 10.4359 20.1177 10.2205 20.2718 10.1277C20.43 10.0323 20.6427 10.0623 20.6427 10.0623L23.5132 10.0445C23.5132 10.0445 24.375 9.94091 24.5155 10.3323C24.6627 10.7414 24.1936 11.6973 23.0209 13.2614C21.0955 15.8305 20.8814 15.5918 22.4809 17.0782C24.0082 18.4977 24.3232 19.1877 24.3764 19.275C25.0077 20.3264 23.6741 20.4095 23.6741 20.4095Z" fill="black"/>
</svg>
