<svg width="30" height="30" viewBox="0 0 30 30" fill="none" xmlns="http://www.w3.org/2000/svg">
<path d="M30 2.5C30 1.11929 28.8807 0 27.5 0H2.5C1.11929 0 0 1.11929 0 2.5V27.5C0 28.8807 1.11929 30 2.5 30H27.5C28.8807 30 30 28.8807 30 27.5V2.5ZM15 23.3333C10.3983 23.3333 6.66667 19.6017 6.66667 15C6.66667 10.3983 10.3983 6.66667 15 6.66667C19.6017 6.66667 23.3333 10.3983 23.3333 15C23.3333 19.6017 19.6017 23.3333 15 23.3333ZM25 6.66667C24.08 6.66667 23.3333 5.92 23.3333 5C23.3333 4.08 24.08 3.33333 25 3.33333C25.92 3.33333 26.6667 4.08 26.6667 5C26.6667 5.92 25.92 6.66667 25 6.66667Z" fill="black"/>
<path d="M15 9.54541C13.5533 9.54541 12.1659 10.1201 11.143 11.143C10.1201 12.1659 9.54541 13.5533 9.54541 15C9.54541 16.4466 10.1201 17.834 11.143 18.8569C12.1659 19.8798 13.5533 20.4545 15 20.4545C16.4466 20.4545 17.834 19.8798 18.8569 18.8569C19.8798 17.834 20.4545 16.4466 20.4545 15C20.4545 13.5533 19.8798 12.1659 18.8569 11.143C17.834 10.1201 16.4466 9.54541 15 9.54541Z" fill="black"/>
</svg>
