<svg width="239" height="66" viewBox="0 0 239 66" fill="none" xmlns="http://www.w3.org/2000/svg">
<path d="M0.0239258 0.119995H7.07993V16.344H14.9999V0.119995H22.1039V39H14.9999V21.432H7.07993V39H0.0239258V0.119995Z" fill="#13181B"/>
<path d="M36.0209 39.432C32.9489 39.432 30.6929 38.584 29.2529 36.888C27.8129 35.16 27.0929 32.616 27.0929 29.256V21C27.0929 17.608 27.8129 15.064 29.2529 13.368C30.7249 11.672 32.9809 10.824 36.0209 10.824C39.1569 10.824 41.3649 11.704 42.6449 13.464C43.9569 15.224 44.6129 17.88 44.6129 21.432V25.416H33.5729V30.888C33.5729 32.232 33.7649 33.208 34.1489 33.816C34.5649 34.424 35.2049 34.728 36.0689 34.728C36.9009 34.728 37.4929 34.44 37.8449 33.864C38.2289 33.256 38.4209 32.344 38.4209 31.128V28.776H44.5649V30.696C44.5649 33.544 43.8449 35.72 42.4049 37.224C40.9649 38.696 38.8369 39.432 36.0209 39.432ZM38.4209 22.2V19.56C38.4209 18.12 38.2449 17.096 37.8929 16.488C37.5409 15.848 36.9169 15.528 36.0209 15.528C35.0929 15.528 34.4529 15.864 34.1009 16.536C33.7489 17.208 33.5729 18.456 33.5729 20.28V22.2H38.4209Z" fill="#13181B"/>
<path d="M49.4748 0.119995H55.9548V39H49.4748V0.119995Z" fill="#13181B"/>
<path d="M61.5686 0.119995H68.0485V39H61.5686V0.119995Z" fill="#13181B"/>
<path d="M80.7663 39.432C78.4303 39.432 76.5103 38.808 75.0063 37.56C73.5023 36.312 72.4303 34.488 71.7903 32.088L76.6383 30.216C77.3743 33.32 78.7183 34.872 80.6703 34.872C81.4063 34.872 81.9663 34.68 82.3503 34.296C82.7663 33.912 82.9743 33.384 82.9743 32.712C82.9743 31.976 82.7503 31.304 82.3023 30.696C81.8543 30.056 81.0543 29.256 79.9023 28.296L76.5903 25.416C75.1823 24.264 74.1423 23.144 73.4703 22.056C72.7983 20.968 72.4623 19.64 72.4623 18.072C72.4623 15.896 73.1983 14.152 74.6703 12.84C76.1743 11.496 78.0623 10.824 80.3343 10.824C82.5103 10.824 84.2863 11.48 85.6623 12.792C87.0383 14.072 87.9343 15.816 88.3503 18.024L84.0783 19.848C83.8223 18.568 83.3903 17.528 82.7823 16.728C82.2063 15.896 81.4543 15.48 80.5263 15.48C79.8543 15.48 79.3103 15.688 78.8943 16.104C78.5103 16.52 78.3183 17.048 78.3183 17.688C78.3183 18.2 78.5423 18.744 78.9903 19.32C79.4383 19.896 80.1103 20.568 81.0063 21.336L84.3663 24.408C85.8063 25.656 86.9103 26.856 87.6783 28.008C88.4783 29.128 88.8783 30.488 88.8783 32.088C88.8783 34.424 88.1103 36.232 86.5743 37.512C85.0703 38.792 83.1343 39.432 80.7663 39.432Z" fill="#13181B"/>
<path d="M104.553 0.119995H114.153C117.833 0.119995 120.649 0.871996 122.601 2.376C124.553 3.88 125.529 6.456 125.529 10.104C125.529 12.472 125.049 14.328 124.089 15.672C123.129 16.984 121.737 17.784 119.913 18.072C124.393 18.936 126.633 22.136 126.633 27.672C126.633 31.416 125.721 34.248 123.897 36.168C122.073 38.056 119.369 39 115.785 39H104.553V0.119995ZM114.057 16.008C116.105 16.008 117.497 15.56 118.233 14.664C119.001 13.736 119.385 12.248 119.385 10.2C119.385 8.216 118.889 6.872 117.897 6.168C116.937 5.432 115.321 5.064 113.049 5.064H111.609V16.008H114.057ZM114.345 34.008C116.425 34.008 117.865 33.512 118.665 32.52C119.465 31.528 119.865 29.896 119.865 27.624C119.865 25.288 119.417 23.592 118.521 22.536C117.657 21.448 116.185 20.904 114.105 20.904H111.609V34.008H114.345Z" fill="#13181B"/>
<path d="M139.24 39.432C136.168 39.432 133.912 38.584 132.472 36.888C131.032 35.16 130.312 32.616 130.312 29.256V21C130.312 17.608 131.032 15.064 132.472 13.368C133.944 11.672 136.2 10.824 139.24 10.824C142.376 10.824 144.584 11.704 145.864 13.464C147.176 15.224 147.832 17.88 147.832 21.432V25.416H136.792V30.888C136.792 32.232 136.984 33.208 137.368 33.816C137.784 34.424 138.424 34.728 139.288 34.728C140.12 34.728 140.712 34.44 141.064 33.864C141.448 33.256 141.64 32.344 141.64 31.128V28.776H147.784V30.696C147.784 33.544 147.064 35.72 145.624 37.224C144.184 38.696 142.056 39.432 139.24 39.432ZM141.64 22.2V19.56C141.64 18.12 141.464 17.096 141.112 16.488C140.76 15.848 140.136 15.528 139.24 15.528C138.312 15.528 137.672 15.864 137.32 16.536C136.968 17.208 136.792 18.456 136.792 20.28V22.2H141.64Z" fill="#13181B"/>
<path d="M152.694 0.119995H159.174V39H152.694V0.119995Z" fill="#13181B"/>
<path d="M164.787 0.119995H171.267V39H164.787V0.119995Z" fill="#13181B"/>
<path d="M183.985 39.432C181.649 39.432 179.729 38.808 178.225 37.56C176.721 36.312 175.649 34.488 175.009 32.088L179.857 30.216C180.593 33.32 181.937 34.872 183.889 34.872C184.625 34.872 185.185 34.68 185.569 34.296C185.985 33.912 186.193 33.384 186.193 32.712C186.193 31.976 185.969 31.304 185.521 30.696C185.073 30.056 184.273 29.256 183.121 28.296L179.809 25.416C178.401 24.264 177.361 23.144 176.689 22.056C176.017 20.968 175.681 19.64 175.681 18.072C175.681 15.896 176.417 14.152 177.889 12.84C179.393 11.496 181.281 10.824 183.553 10.824C185.729 10.824 187.505 11.48 188.881 12.792C190.257 14.072 191.153 15.816 191.569 18.024L187.297 19.848C187.041 18.568 186.609 17.528 186.001 16.728C185.425 15.896 184.673 15.48 183.745 15.48C183.073 15.48 182.529 15.688 182.113 16.104C181.729 16.52 181.537 17.048 181.537 17.688C181.537 18.2 181.761 18.744 182.209 19.32C182.657 19.896 183.329 20.568 184.225 21.336L187.585 24.408C189.025 25.656 190.129 26.856 190.897 28.008C191.697 29.128 192.097 30.488 192.097 32.088C192.097 34.424 191.329 36.232 189.793 37.512C188.289 38.792 186.353 39.432 183.985 39.432Z" fill="#13181B"/>
<path d="M184.408 48.1761H181.312V45.5601H190.984V48.1761H187.96V65.0001H184.408V48.1761Z" fill="#13181B"/>
<path d="M194.92 65.2161C194.328 65.2161 193.8 65.0561 193.336 64.7361C192.888 64.4161 192.536 64.0081 192.28 63.5121C192.04 63.0001 191.92 62.4721 191.92 61.9281C191.92 60.8561 192.168 59.9761 192.664 59.2881C193.176 58.5841 193.8 58.0401 194.536 57.6561C195.288 57.2721 196.28 56.8481 197.512 56.3841V55.1841C197.512 54.5441 197.432 54.0801 197.272 53.7921C197.128 53.4881 196.84 53.3361 196.408 53.3361C195.672 53.3361 195.288 53.8481 195.256 54.8721L195.208 55.7121L192.112 55.5921C192.16 53.9921 192.552 52.8161 193.288 52.0641C194.04 51.2961 195.168 50.9121 196.672 50.9121C198.032 50.9121 199.04 51.2881 199.696 52.0401C200.352 52.7761 200.68 53.8241 200.68 55.1841V61.5921C200.68 62.5841 200.76 63.7201 200.92 65.0001H197.992C197.832 64.1361 197.72 63.4721 197.656 63.0081C197.464 63.6321 197.136 64.1601 196.672 64.5921C196.224 65.0081 195.64 65.2161 194.92 65.2161ZM196.12 62.7921C196.392 62.7921 196.648 62.6961 196.888 62.5041C197.144 62.3121 197.352 62.1041 197.512 61.8801V57.9921C196.664 58.4881 196.032 58.9681 195.616 59.4321C195.2 59.8801 194.992 60.4481 194.992 61.1361C194.992 61.6481 195.088 62.0561 195.28 62.3601C195.488 62.6481 195.768 62.7921 196.12 62.7921Z" fill="#13181B"/>
<path d="M206.975 65.1681C205.711 65.1681 204.815 64.8641 204.287 64.2561C203.775 63.6481 203.519 62.7441 203.519 61.5441V53.2641H202.127V51.1281H203.519V46.9761H206.807V51.1281H208.895V53.2641H206.807V61.2561C206.807 61.7201 206.903 62.0561 207.095 62.2641C207.303 62.4721 207.623 62.5761 208.055 62.5761C208.455 62.5761 208.791 62.5441 209.063 62.4801V65.0001C208.423 65.1121 207.727 65.1681 206.975 65.1681Z" fill="#13181B"/>
<path d="M214.944 65.1681C213.68 65.1681 212.784 64.8641 212.256 64.2561C211.744 63.6481 211.488 62.7441 211.488 61.5441V53.2641H210.096V51.1281H211.488V46.9761H214.776V51.1281H216.864V53.2641H214.776V61.2561C214.776 61.7201 214.872 62.0561 215.064 62.2641C215.272 62.4721 215.592 62.5761 216.024 62.5761C216.424 62.5761 216.76 62.5441 217.032 62.4801V65.0001C216.392 65.1121 215.696 65.1681 214.944 65.1681Z" fill="#13181B"/>
<path d="M223.104 65.2161C221.616 65.2161 220.504 64.8081 219.768 63.9921C219.032 63.1601 218.664 61.9601 218.664 60.3921V55.7361C218.664 54.1681 219.032 52.9761 219.768 52.1601C220.504 51.3281 221.616 50.9121 223.104 50.9121C224.592 50.9121 225.704 51.3281 226.44 52.1601C227.192 52.9761 227.568 54.1681 227.568 55.7361V60.3921C227.568 61.9601 227.192 63.1601 226.44 63.9921C225.704 64.8081 224.592 65.2161 223.104 65.2161ZM223.128 62.9601C223.624 62.9601 223.952 62.7681 224.112 62.3841C224.272 61.9841 224.352 61.4001 224.352 60.6321V55.5201C224.352 54.7521 224.272 54.1681 224.112 53.7681C223.952 53.3681 223.624 53.1681 223.128 53.1681C222.616 53.1681 222.28 53.3681 222.12 53.7681C221.96 54.1681 221.88 54.7521 221.88 55.5201V60.6321C221.88 61.4001 221.96 61.9841 222.12 62.3841C222.28 62.7681 222.616 62.9601 223.128 62.9601Z" fill="#13181B"/>
<path d="M234.026 65.2161C232.538 65.2161 231.426 64.8081 230.69 63.9921C229.954 63.1601 229.586 61.9601 229.586 60.3921V55.7361C229.586 54.1681 229.954 52.9761 230.69 52.1601C231.426 51.3281 232.538 50.9121 234.026 50.9121C235.514 50.9121 236.626 51.3281 237.362 52.1601C238.114 52.9761 238.49 54.1681 238.49 55.7361V60.3921C238.49 61.9601 238.114 63.1601 237.362 63.9921C236.626 64.8081 235.514 65.2161 234.026 65.2161ZM234.05 62.9601C234.546 62.9601 234.874 62.7681 235.034 62.3841C235.194 61.9841 235.274 61.4001 235.274 60.6321V55.5201C235.274 54.7521 235.194 54.1681 235.034 53.7681C234.874 53.3681 234.546 53.1681 234.05 53.1681C233.538 53.1681 233.202 53.3681 233.042 53.7681C232.882 54.1681 232.802 54.7521 232.802 55.5201V60.6321C232.802 61.4001 232.882 61.9841 233.042 62.3841C233.202 62.7681 233.538 62.9601 234.05 62.9601Z" fill="#13181B"/>
</svg>
